<svg xmlns="http://www.w3.org/2000/svg" width="131" height="244" viewBox="0 0 131 244" fill="none">
<path fill-rule="evenodd" clip-rule="evenodd" d="M56.8019 235.103C59.4548 243.374 71.157 243.374 73.8099 235.103L126.921 69.5184C128.326 65.1392 127.504 60.7126 125.214 57.2785C122.242 26.8107 96.5548 3 65.3064 3C34.0585 3 8.37169 26.8098 5.39849 57.2768C3.10797 60.7111 2.28573 65.1384 3.69061 69.5184L56.8019 235.103Z" fill="#343A40" style="&#10;    fill: #1C3775;&#10;"/>
<path d="M73.8099 235.103L71.4293 234.34L71.4293 234.34L73.8099 235.103ZM56.8019 235.103L59.1825 234.34L56.8019 235.103ZM126.921 69.5184L124.541 68.7549L126.921 69.5184ZM125.214 57.2785L122.726 57.5213L122.787 58.1444L123.134 58.6654L125.214 57.2785ZM5.39849 57.2768L7.47834 58.664L7.82584 58.1429L7.88667 57.5196L5.39849 57.2768ZM3.69061 69.5184L6.07115 68.7549L6.07115 68.7548L3.69061 69.5184ZM71.4293 234.34C69.5191 240.295 61.0927 240.295 59.1825 234.34L54.4214 235.867C57.8169 246.453 72.7949 246.453 76.1904 235.867L71.4293 234.34ZM124.541 68.7549L71.4293 234.34L76.1904 235.867L129.302 70.282L124.541 68.7549ZM123.134 58.6654C125.026 61.5024 125.7 65.1416 124.541 68.7549L129.302 70.282C130.952 65.1367 129.982 59.9228 127.294 55.8917L123.134 58.6654ZM65.3064 5.5C95.2555 5.5 119.878 28.3215 122.726 57.5213L127.703 57.0358C124.606 25.2999 97.8541 0.499996 65.3064 0.499997L65.3064 5.5ZM7.88667 57.5196C10.7361 28.3206 35.3577 5.5 65.3064 5.5L65.3064 0.499997C32.7592 0.499999 6.00726 25.299 2.91031 57.034L7.88667 57.5196ZM6.07115 68.7548C4.912 65.141 5.58608 61.5012 7.47834 58.664L3.31863 55.8896C0.629873 59.9211 -0.34054 65.1359 1.31007 70.282L6.07115 68.7548ZM59.1825 234.34L6.07115 68.7549L1.31007 70.282L54.4214 235.867L59.1825 234.34Z" fill="white"/>
<circle cx="65.7392" cy="65.5417" r="20.0919" transform="rotate(-90 65.7392 65.5417)" fill="white"/>
</svg>