<svg xmlns="http://www.w3.org/2000/svg" width="15" height="15" viewBox="0 0 15 15" fill="none">
<g clip-path="url(#clip0)">
<path d="M14.7943 1.70228C14.4622 1.03791 13.7941 0.625 13.0508 0.625H6.99517C5.83563 0.625 4.72888 1.12182 3.95849 1.98854L1.02406 5.28933C0.362034 6.03364 -0.00241955 6.99221 1.20899e-05 8.02858L0.522551 12.0618H0.522844C0.59761 12.6398 0.865911 13.1852 1.27826 13.5975C1.77974 14.0989 2.44636 14.375 3.1557 14.375H13.7498C14.4393 14.375 15 13.8144 15 13.125V2.57386C15 2.27295 14.9289 1.97146 14.7943 1.70228ZM14.3751 13.125H14.375C14.375 13.4695 14.0946 13.75 13.75 13.75H3.15766C2.61567 13.75 2.10573 13.5388 1.7224 13.1555C1.40717 12.8403 1.20209 12.4234 1.14502 11.9812L0.625002 7.98827C0.625002 7.14537 0.933528 6.33452 1.49322 5.70435L4.42721 2.40358C5.07906 1.67055 6.01566 1.25002 6.99649 1.25002H13.0512C13.5559 1.25002 14.0097 1.53048 14.2353 1.98183C14.3268 2.16464 14.3751 2.36939 14.3751 2.57386V13.125Z" fill="white"/>
<path d="M13.6762 2.26134C13.5574 2.02301 13.3179 1.875 13.0512 1.875H6.99649C6.1942 1.875 5.42788 2.21895 4.89444 2.81892L1.96016 6.11968C1.59151 6.53502 1.25 7.02759 1.25 7.81248C1.25 7.98521 1.38978 8.12499 1.56251 8.12499H13.4375C13.6102 8.12499 13.75 7.98521 13.75 7.81248V2.57385C13.75 2.4658 13.7244 2.35778 13.6762 2.26134ZM13.125 7.5H13.125H1.90004C1.9574 7.16918 2.11763 6.88386 2.42738 6.53473L5.36135 3.23426C5.7764 2.76765 6.37238 2.49999 6.99649 2.49999H13.0512C13.0802 2.49999 13.1043 2.51464 13.125 2.57385V7.5Z" fill="white"/>
<path d="M13.4375 9.375H11.5625C11.3898 9.375 11.25 9.51478 11.25 9.68751C11.25 9.86024 11.3898 10 11.5625 10H13.4375C13.6102 10 13.75 9.86024 13.75 9.68751C13.75 9.51478 13.6102 9.375 13.4375 9.375Z" fill="white"/>
<path d="M6.78343 3.21656C6.66135 3.09448 6.4636 3.09448 6.34155 3.21656L5.71656 3.84155C5.59448 3.96363 5.59448 4.16138 5.71656 4.28343C5.77756 4.34449 5.85754 4.37499 5.93749 4.37499C6.01744 4.37499 6.09739 4.34446 6.15844 4.28343L6.78343 3.65844C6.90551 3.53636 6.90551 3.33861 6.78343 3.21656Z" fill="white"/>
<path d="M8.03346 3.21656C7.91138 3.09448 7.71363 3.09448 7.59155 3.21656L5.71656 5.09156C5.59448 5.21364 5.59448 5.41139 5.71656 5.53344C5.77758 5.59447 5.85756 5.625 5.93752 5.625C6.01747 5.625 6.09742 5.59447 6.15847 5.53344L8.03346 3.65844C8.15554 3.53636 8.15554 3.33861 8.03346 3.21656Z" fill="white"/>
<path d="M13.4375 11.25H2.18751C2.01478 11.25 1.875 11.3898 1.875 11.5625C1.875 11.7352 2.01478 11.875 2.18751 11.875H13.4375C13.6102 11.875 13.75 11.7352 13.75 11.5625C13.75 11.3898 13.6102 11.25 13.4375 11.25Z" fill="white"/>
</g>
<defs>
<clipPath id="clip0">
<rect width="15" height="15" fill="white"/>
</clipPath>
</defs>
</svg>