<svg width="18" height="18" viewBox="0 0 18 18" fill="none" xmlns="http://www.w3.org/2000/svg">
<path fill-rule="evenodd" clip-rule="evenodd" d="M17.7043 3.79L14.2054 0.289999C13.8155 -0.0977244 13.1858 -0.0977244 12.7959 0.289999L0.289908 12.79C0.102782 12.9787 -0.00153479 13.2342 1.47208e-06 13.5V17C1.47208e-06 17.5523 0.447572 18 0.999678 18H4.49855C4.76427 18.0015 5.01966 17.8972 5.20832 17.71L17.7043 5.21C17.8935 5.02223 18 4.76664 18 4.5C18 4.23336 17.8935 3.97777 17.7043 3.79ZM4.08868 16H1.99936V13.91L10.7465 5.16L12.8359 7.25L4.08868 16ZM14.2454 5.84L12.1561 3.75L13.4956 2.41L15.585 4.5L14.2454 5.84Z" fill="white"/>
</svg>
