<svg xmlns="http://www.w3.org/2000/svg" width="15" height="15" viewBox="0 0 15 15" fill="none">
<g clip-path="url(#clip0)">
<path d="M14.5605 7.06149H13.8775L14.2123 6.48159C14.3337 6.27142 14.2617 6.00262 14.0515 5.8813C13.8412 5.75989 13.5725 5.83193 13.4512 6.04214L12.8626 7.06149H8.56093L11.6027 4.01972L12.7396 4.32435C12.7777 4.33457 12.816 4.33946 12.8537 4.33946C13.0477 4.33946 13.2253 4.20997 13.2779 4.01365C13.3407 3.77922 13.2016 3.53822 12.9671 3.47541L12.3203 3.30209L12.7619 2.86053C12.9335 2.68894 12.9335 2.41067 12.7619 2.23905C12.5903 2.06746 12.312 2.06746 12.1404 2.23905L11.6988 2.68064L11.5255 2.03383C11.4627 1.79939 11.2218 1.66047 10.9873 1.72311C10.7528 1.78595 10.6137 2.02691 10.6766 2.26135L10.9812 3.3983L7.93945 6.44002V2.1383L8.95881 1.54979C9.16898 1.42844 9.24103 1.1597 9.11965 0.949492C8.99827 0.739258 8.7295 0.667275 8.51936 0.788652L7.93945 1.12346V0.44043C7.93945 0.197734 7.7427 0.000976562 7.5 0.000976562C7.2573 0.000976562 7.06055 0.197734 7.06055 0.44043V3.12833C4.84295 3.34952 3.10547 5.2261 3.10547 7.50095C3.10547 9.77579 4.84295 11.6524 7.06055 11.8736V14.5615C7.06055 14.8042 7.2573 15.0009 7.5 15.0009C7.7427 15.0009 7.93945 14.8042 7.93945 14.5615V13.8785L8.51936 14.2133C8.58855 14.2532 8.66411 14.2722 8.73867 14.2722C8.89055 14.2722 9.03826 14.1934 9.11965 14.0524C9.24103 13.8422 9.16898 13.5735 8.95881 13.4521L7.93945 12.8636V8.56188L10.9812 11.6036L10.6766 12.7406C10.6138 12.975 10.7529 13.216 10.9873 13.2788C11.0254 13.289 11.0637 13.2939 11.1013 13.2939C11.2954 13.2939 11.4729 13.1644 11.5255 12.9681L11.6988 12.3213L12.1404 12.7628C12.2262 12.8487 12.3387 12.8916 12.4511 12.8916C12.5636 12.8916 12.6761 12.8487 12.7618 12.7628C12.9335 12.5912 12.9335 12.313 12.7618 12.1414L12.3202 11.6998L12.9671 11.5265C13.2015 11.4636 13.3406 11.2226 13.2778 10.9882C13.215 10.7538 12.9741 10.6147 12.7396 10.6775L11.6026 10.9821L8.56093 7.9404H12.8626L13.4512 8.95976C13.5325 9.10076 13.6803 9.17957 13.8321 9.17957C13.9067 9.17957 13.9823 9.16059 14.0515 9.12059C14.2616 8.99925 14.3337 8.73051 14.2123 8.5203L13.8775 7.9404H14.5605C14.8032 7.9404 15 7.74364 15 7.50095C15 7.25825 14.8032 7.06149 14.5605 7.06149ZM3.98438 7.50095C3.98438 5.71123 5.32866 4.22966 7.06055 4.01274V10.9892C5.32866 10.7722 3.98438 9.29066 3.98438 7.50095Z" fill="white"/>
<path d="M2.28674 7.5C2.28674 7.2573 2.08998 7.06055 1.84729 7.06055H0.439453C0.196758 7.06055 0 7.2573 0 7.5C0 7.7427 0.196758 7.93945 0.439453 7.93945H1.84729C2.08998 7.93945 2.28674 7.7427 2.28674 7.5Z" fill="white"/>
<path d="M3.19255 3.81363C3.27836 3.89947 3.39083 3.94236 3.50327 3.94236C3.61571 3.94236 3.72821 3.89944 3.814 3.81363C3.98562 3.64204 3.98562 3.36381 3.814 3.19216L2.81855 2.19665C2.64699 2.02503 2.36872 2.02503 2.19707 2.19665C2.02545 2.36824 2.02545 2.64647 2.19707 2.81812L3.19255 3.81363Z" fill="white"/>
<path d="M3.19255 11.1863L2.19707 12.1818C2.02545 12.3534 2.02545 12.6316 2.19707 12.8033C2.28289 12.8891 2.39536 12.932 2.5078 12.932C2.62024 12.932 2.73274 12.8891 2.81852 12.8033L3.814 11.8078C3.98562 11.6362 3.98562 11.3579 3.814 11.1863C3.6424 11.0147 3.36414 11.0147 3.19255 11.1863Z" fill="white"/>
<path d="M4.97386 2.42399C5.04297 2.59502 5.20762 2.69885 5.38141 2.69885C5.43625 2.69885 5.492 2.68851 5.54597 2.66668C5.77097 2.57574 5.87966 2.31957 5.78866 2.09457L5.26103 0.789337C5.17009 0.564337 4.91389 0.455616 4.68892 0.546641C4.46392 0.637579 4.35523 0.893751 4.44623 1.11875L4.97386 2.42399Z" fill="white"/>
<path d="M2.66682 9.45381C2.57588 9.22881 2.31968 9.12012 2.09471 9.21112L0.789508 9.73875C0.564508 9.82969 0.455816 10.0859 0.546812 10.3109C0.615953 10.4819 0.780572 10.5857 0.954361 10.5857C1.0092 10.5857 1.06496 10.5754 1.11892 10.5536L2.42413 10.0259C2.64913 9.93498 2.75782 9.67884 2.66682 9.45381Z" fill="white"/>
<path d="M5.52291 12.3239C5.29826 12.2319 5.04168 12.3393 4.94963 12.5639L4.41576 13.8665C4.32371 14.0911 4.43117 14.3478 4.65573 14.4398C4.71028 14.4622 4.7667 14.4728 4.82222 14.4728C4.99525 14.4728 5.15934 14.3698 5.22903 14.1999L5.76291 12.8972C5.85493 12.6726 5.7475 12.4159 5.52291 12.3239Z" fill="white"/>
<path d="M0.800279 5.22918L2.10296 5.76303C2.15749 5.78538 2.21391 5.79596 2.26943 5.79596C2.44249 5.79596 2.60655 5.69307 2.67625 5.52303C2.7683 5.29847 2.66084 5.0418 2.43625 4.94978L1.13356 4.41593C0.909029 4.32391 0.65233 4.43134 0.560308 4.65593C0.468228 4.88049 0.57566 5.13716 0.800279 5.22918Z" fill="white"/>
</g>
<defs>
<clipPath id="clip0">
<rect width="15" height="15" fill="white"/>
</clipPath>
</defs>
</svg>