<svg xmlns="http://www.w3.org/2000/svg" width="15" height="15" viewBox="0 0 15 15" fill="none">
<path d="M8.91196 14.6186C8.91196 14.8292 8.7412 15 8.53052 15H6.46865C6.25797 15 6.08722 14.8292 6.08722 14.6186C6.08722 14.4079 6.25797 14.2371 6.46865 14.2371H8.53052C8.7412 14.2371 8.91196 14.4079 8.91196 14.6186ZM12.2767 10.9751V12.074C12.2767 12.8902 11.6126 13.5543 10.7963 13.5543H4.20297C3.38674 13.5543 2.72266 12.8902 2.72266 12.074V10.9751C2.72266 10.7644 2.89341 10.5937 3.10409 10.5937H3.20555C3.20466 10.5827 3.20416 10.5716 3.20416 10.5604V9.53827C3.2036 9.51559 3.20513 9.49309 3.20861 9.47096C3.21725 9.41464 3.23823 9.36242 3.2687 9.31707C3.29858 9.27236 3.33817 9.23362 3.38597 9.20438C3.40534 9.19247 3.42581 9.18226 3.44726 9.17391C3.59831 9.11106 3.74846 9.04609 3.89672 8.97955V4.31908C3.89672 3.56142 4.37881 2.89586 5.06641 2.63979C5.0656 2.61894 5.06522 2.59809 5.06522 2.57706V1.635C5.06518 0.733458 5.79864 0 6.70014 0H8.29899C9.20054 0 9.93395 0.733458 9.93395 1.635V2.57711C9.93395 2.59809 9.93353 2.61898 9.93276 2.63975C10.2038 2.74053 10.4468 2.9059 10.6406 3.12082C10.6474 3.10811 10.6541 3.09544 10.6609 3.08272C10.7591 2.89641 10.9898 2.825 11.1762 2.92337C11.3626 3.02165 11.4339 3.25242 11.3356 3.43873C10.6217 4.79181 9.58494 6.04554 8.25415 7.16506C7.19194 8.05859 5.98622 8.83041 4.65963 9.46694V10.5937H10.3396V6.00295C10.3396 5.79227 10.5104 5.62151 10.7211 5.62151C10.9317 5.62151 11.1025 5.79227 11.1025 6.00295V10.5937H11.8953C12.1059 10.5937 12.2767 10.7644 12.2767 10.9751ZM5.82805 2.57711C5.82805 2.65517 5.83835 2.73091 5.85768 2.803C5.86077 2.81233 5.86352 2.82182 5.86586 2.83148C5.97495 3.18867 6.30764 3.44924 6.7001 3.44924H8.29895C8.69136 3.44924 9.02406 3.18876 9.13323 2.83161C9.13565 2.82182 9.1384 2.8122 9.1415 2.80279C9.16078 2.73078 9.17108 2.65513 9.17108 2.57711V1.635C9.17108 1.1541 8.77985 0.762871 8.29895 0.762871H6.7001C6.21923 0.762871 5.82805 1.1541 5.82805 1.635V2.57711ZM4.65959 8.61502C7.04076 7.40625 8.99672 5.72671 10.2185 3.83695C10.1078 3.6305 9.93238 3.47001 9.72404 3.37795C9.44338 3.87543 8.90975 4.21207 8.29895 4.21207H6.7001C6.08933 4.21207 5.55571 3.87539 5.27505 3.37791C4.9104 3.53896 4.65959 3.90505 4.65959 4.31908V8.61502ZM11.5138 11.3565H10.7268C10.7248 11.3565 10.7229 11.3566 10.721 11.3566H4.27815C4.27624 11.3566 4.27434 11.3566 4.27239 11.3565H3.48553V12.074C3.48553 12.4696 3.80737 12.7914 4.20297 12.7914H10.7963C11.1919 12.7914 11.5138 12.4696 11.5138 12.074V11.3565Z" fill="white"/>
</svg>