<svg xmlns="http://www.w3.org/2000/svg" width="15" height="15" viewBox="0 0 15 15" fill="none">
<g clip-path="url(#clip0)">
<path d="M8.14453 11.1636V8.08594H11.8652C12.8345 8.08594 13.623 7.29738 13.623 6.32812V3.8364C14.4201 3.58658 15 2.84121 15 1.96289C15 0.880547 14.1195 0 13.0371 0C11.9548 0 11.0742 0.880547 11.0742 1.96289C11.0742 2.84121 11.6542 3.58661 12.4512 3.8364V6.32812C12.4512 6.65121 12.1883 6.91406 11.8652 6.91406H8.14453V3.8364C8.94155 3.58658 9.52148 2.84121 9.52148 1.96289C9.52148 0.880547 8.64094 0 7.55859 0C6.47625 0 5.5957 0.880547 5.5957 1.96289C5.5957 2.84121 6.17563 3.58661 6.97266 3.8364V6.91406H3.13477C2.81168 6.91406 2.54883 6.65121 2.54883 6.32812V3.8364C3.34585 3.58658 3.92578 2.84121 3.92578 1.96289C3.92578 0.880547 3.04523 0 1.96289 0C0.880547 0 0 0.880547 0 1.96289C0 2.84121 0.579932 3.58661 1.37695 3.8364V6.32812C1.37695 6.77798 1.54702 7.18875 1.82599 7.5C1.54702 7.81125 1.37695 8.22202 1.37695 8.67188V11.1636C0.579932 11.4134 0 12.1588 0 13.0371C0 14.1195 0.880547 15 1.96289 15C3.04523 15 3.92578 14.1195 3.92578 13.0371C3.92578 12.1588 3.34585 11.4134 2.54883 11.1636V8.67188C2.54883 8.34879 2.81168 8.08594 3.13477 8.08594H6.97266V11.1636C6.17563 11.4134 5.5957 12.1588 5.5957 13.0371C5.5957 14.1195 6.47625 15 7.55859 15C8.64094 15 9.52148 14.1195 9.52148 13.0371C9.52148 12.1588 8.94155 11.4134 8.14453 11.1636ZM13.0371 1.17188C13.4733 1.17188 13.8281 1.52672 13.8281 1.96289C13.8281 2.39906 13.4733 2.75391 13.0371 2.75391C12.6009 2.75391 12.2461 2.39906 12.2461 1.96289C12.2461 1.52672 12.6009 1.17188 13.0371 1.17188ZM7.55859 1.17188C7.99477 1.17188 8.34961 1.52672 8.34961 1.96289C8.34961 2.39906 7.99477 2.75391 7.55859 2.75391C7.12242 2.75391 6.76758 2.39906 6.76758 1.96289C6.76758 1.52672 7.12242 1.17188 7.55859 1.17188ZM1.96289 1.17188C2.39906 1.17188 2.75391 1.52672 2.75391 1.96289C2.75391 2.39906 2.39906 2.75391 1.96289 2.75391C1.52672 2.75391 1.17188 2.39906 1.17188 1.96289C1.17188 1.52672 1.52672 1.17188 1.96289 1.17188ZM1.96289 13.8281C1.52672 13.8281 1.17188 13.4733 1.17188 13.0371C1.17188 12.6009 1.52672 12.2461 1.96289 12.2461C2.39906 12.2461 2.75391 12.6009 2.75391 13.0371C2.75391 13.4733 2.39906 13.8281 1.96289 13.8281ZM7.55859 13.8281C7.12242 13.8281 6.76758 13.4733 6.76758 13.0371C6.76758 12.6009 7.12242 12.2461 7.55859 12.2461C7.99477 12.2461 8.34961 12.6009 8.34961 13.0371C8.34961 13.4733 7.99477 13.8281 7.55859 13.8281ZM15 11.5869C15 10.6903 14.2706 9.96094 13.374 9.96094H11.4258V15H12.5977V13.2129H12.7536L13.6637 15H14.9788L14.004 13.0858C14.5886 12.8392 15 12.2602 15 11.5869ZM12.5977 11.1328H13.374C13.6244 11.1328 13.8281 11.3365 13.8281 11.5869C13.8281 11.8373 13.6244 12.041 13.374 12.041H12.5977V11.1328Z" fill="white"/>
</g>
<defs>
<clipPath id="clip0">
<rect width="15" height="15" fill="white"/>
</clipPath>
</defs>
</svg>